<svg id="Layer_1" data-name="Layer 1" xmlns="http://www.w3.org/2000/svg" xmlns:xlink="http://www.w3.org/1999/xlink" viewBox="0 0 512 512"><defs><linearGradient id="linear-gradient" x1="256" y1="512" x2="256" gradientUnits="userSpaceOnUse"><stop offset="0" stop-color="#231f20"/><stop offset="1" stop-color="#58595b"/></linearGradient></defs><title>add</title><path d="M486.41,192H320V25.6A25.67,25.67,0,0,0,294.39,0H217.6A25.67,25.67,0,0,0,192,25.6V192H25.6A25.67,25.67,0,0,0,0,217.6v76.8A25.67,25.67,0,0,0,25.6,320H192V486.39A25.68,25.68,0,0,0,217.6,512h76.78A25.68,25.68,0,0,0,320,486.39V320H486.41A25.67,25.67,0,0,0,512,294.41V217.6A25.67,25.67,0,0,0,486.41,192Z" fill-rule="evenodd" fill="url(#linear-gradient)"/></svg>